<svg width="300" height="300" viewBox="0 0 300 300" fill="none" xmlns="http://www.w3.org/2000/svg">
<path d="M222.208 143.319L156.714 77.8287C152.945 74.0571 146.828 74.0571 143.053 77.8287L129.455 91.4296L146.706 108.681C150.717 107.327 155.313 108.235 158.508 111.431C161.72 114.646 162.622 119.281 161.233 123.305L177.859 139.934C181.882 138.547 186.524 139.443 189.735 142.661C194.227 147.149 194.227 154.425 189.735 158.915C185.243 163.407 177.97 163.407 173.476 158.915C170.099 155.536 169.263 150.575 170.974 146.413L155.47 130.907L155.468 171.714C156.563 172.255 157.596 172.977 158.508 173.886C162.999 178.374 162.999 185.647 158.508 190.145C154.018 194.633 146.74 194.633 142.254 190.145C137.765 185.649 137.396 178.375 141.884 173.886C142.994 172.777 144.089 171.94 145.277 171.379V130.195C144.089 129.634 142.995 128.802 141.883 127.686C138.484 124.288 137.848 119.297 139.592 115.119L122.68 98.1112L77.8177 143.016C74.045 146.791 74.0687 152.908 77.8415 156.681L143.346 222.171C147.116 225.943 153.238 225.943 157.015 222.171L222.203 156.985C225.976 153.211 225.979 147.091 222.208 143.319Z" fill="#DEE1E6"/>
</svg>
