<svg width="300" height="300" viewBox="0 0 300 300" fill="none" xmlns="http://www.w3.org/2000/svg">
<g clip-path="url(#clip0_8_2360)">
<path d="M75 75H225V225H75V75Z" fill="#DEE1E6"/>
<path d="M114.441 200.351L125.919 193.404C128.134 197.33 130.148 200.652 134.981 200.652C139.612 200.652 142.533 198.841 142.533 191.793V143.865H156.629V191.992C156.629 206.592 148.071 213.238 135.585 213.238C124.308 213.238 117.763 207.399 114.441 200.351ZM164.286 198.84L175.763 192.195C178.785 197.129 182.712 200.754 189.659 200.754C195.5 200.754 199.224 197.834 199.224 193.806C199.224 188.973 195.398 187.261 188.954 184.443L185.43 182.931C175.26 178.602 168.514 173.165 168.514 161.686C168.514 151.114 176.569 143.058 189.156 143.058C198.117 143.058 204.561 146.18 209.193 154.336L198.217 161.385C195.8 157.055 193.183 155.344 189.155 155.344C185.027 155.344 182.409 157.962 182.409 161.385C182.409 165.613 185.027 167.326 191.068 169.944L194.592 171.454C206.574 176.59 213.32 181.825 213.32 193.605C213.32 206.293 203.352 213.24 189.96 213.24C176.871 213.24 168.414 206.996 164.286 198.84Z" fill="black"/>
</g>
<defs>
<clipPath id="clip0_8_2360">
<rect width="150" height="150" fill="white" transform="translate(75 75)"/>
</clipPath>
</defs>
</svg>
