<svg width="300" height="300" viewBox="0 0 300 300" fill="none" xmlns="http://www.w3.org/2000/svg">
<path d="M143.993 138.284C141.699 139.609 139.849 141.584 138.677 143.96C137.505 146.336 137.064 149.006 137.41 151.633C137.756 154.259 138.873 156.724 140.62 158.716C142.366 160.708 144.665 162.137 147.224 162.822C149.783 163.508 152.487 163.419 154.996 162.568C157.505 161.716 159.704 160.14 161.317 158.038C162.93 155.936 163.883 153.403 164.056 150.76C164.229 148.116 163.614 145.481 162.29 143.186C160.513 140.11 157.588 137.866 154.156 136.946C150.725 136.027 147.069 136.508 143.993 138.284ZM204.028 152.817C203.149 151.812 202.221 150.804 201.244 149.794C201.926 149.077 202.586 148.361 203.224 147.645C215.268 134.113 220.351 120.542 215.641 112.384C211.125 104.561 197.69 102.23 180.872 105.5C179.215 105.824 177.568 106.19 175.929 106.597C175.616 105.516 175.282 104.441 174.929 103.372C169.223 86.1781 160.006 74.9941 150.586 75C141.553 75.0041 132.822 85.4781 127.253 101.681C126.705 103.28 126.198 104.891 125.732 106.516C124.637 106.248 123.537 105.999 122.432 105.772C104.687 102.128 90.3948 104.528 85.6941 112.691C81.1866 120.519 85.9005 133.315 97.1579 146.232C98.2743 147.51 99.4224 148.759 100.602 149.98C99.2114 151.413 97.8945 152.844 96.6671 154.268C85.6827 167.003 81.2383 179.589 85.7385 187.383C90.3861 195.435 104.477 198.066 121.629 194.691C123.019 194.416 124.401 194.106 125.776 193.761C126.279 195.519 126.832 197.261 127.433 198.989C132.978 214.866 141.659 225.003 150.66 225C159.956 224.995 169.275 214.103 174.921 197.559C175.367 196.252 175.789 194.894 176.189 193.496C177.964 193.938 179.752 194.33 181.55 194.672C198.075 197.799 211.194 195.34 215.686 187.54C220.325 179.483 215.542 165.97 204.028 152.817ZM91.247 115.889C94.1409 110.864 105.821 108.903 121.142 112.049C122.122 112.25 123.118 112.475 124.13 112.724C122.635 119.341 121.579 126.05 120.971 132.806C115.443 136.695 110.172 140.938 105.192 145.508C104.095 144.373 103.027 143.211 101.988 142.021C92.3424 130.954 88.5306 120.606 91.247 115.889ZM120.397 158.849C116.568 155.95 113.009 152.979 109.779 149.992C113.007 147.023 116.568 144.062 120.389 141.171C120.252 144.116 120.184 147.064 120.185 150.015C120.187 152.961 120.258 155.905 120.397 158.849ZM120.392 188.404C113.892 189.849 107.181 190.086 100.595 189.102C98.789 188.962 97.0315 188.452 95.4306 187.606C93.8298 186.759 92.4195 185.593 91.287 184.18C88.5565 179.45 92.1252 169.345 101.519 158.453C102.7 157.088 103.92 155.759 105.179 154.465C110.16 159.059 115.439 163.319 120.982 167.216C121.599 174.059 122.666 180.853 124.179 187.556C122.924 187.869 121.662 188.152 120.392 188.404ZM173.651 128.109C171.135 126.524 168.589 124.99 166.011 123.506C163.475 122.046 160.908 120.641 158.31 119.291C162.758 117.421 167.129 115.824 171.35 114.522C172.345 119.009 173.113 123.544 173.651 128.109ZM133.313 103.764C138.085 89.8805 145.145 81.4101 150.589 81.4078C156.387 81.405 163.921 90.5447 168.847 105.39C169.167 106.358 169.469 107.331 169.754 108.31C163.283 110.317 156.951 112.75 150.801 115.593C144.676 112.717 138.364 110.256 131.908 108.229C132.34 106.729 132.808 105.241 133.313 103.764ZM130.31 114.442C134.713 115.828 139.042 117.435 143.283 119.257C138.028 121.969 132.91 124.922 127.927 128.118C128.529 123.333 129.33 118.748 130.31 114.442ZM127.938 171.897C130.423 173.488 132.944 175.02 135.502 176.493C138.11 177.995 140.754 179.434 143.432 180.809C139.159 182.695 134.792 184.359 130.349 185.796C129.358 181.431 128.548 176.766 127.938 171.897ZM168.856 195.489C166.861 201.842 163.713 207.774 159.57 212.988C158.547 214.481 157.227 215.75 155.694 216.713C154.161 217.677 152.447 218.316 150.657 218.591C145.195 218.594 138.224 210.453 133.483 196.875C132.924 195.27 132.41 193.65 131.941 192.015C138.428 189.922 144.765 187.392 150.91 184.442C157.111 187.304 163.493 189.756 170.015 191.781C169.659 193.026 169.273 194.262 168.856 195.489ZM171.573 185.557C167.304 184.237 162.868 182.613 158.357 180.716C160.9 179.377 163.462 177.964 166.042 176.475C168.69 174.946 171.27 173.379 173.783 171.773C173.282 176.403 172.545 181.003 171.573 185.557ZM174.92 149.987C174.926 154.542 174.783 159.093 174.493 163.64C170.798 166.141 166.897 168.583 162.838 170.926C158.796 173.26 154.791 175.404 150.863 177.345C146.729 175.364 142.674 173.229 138.7 170.94C134.747 168.665 130.886 166.243 127.115 163.673C126.77 159.127 126.596 154.572 126.594 150.01C126.591 145.45 126.761 140.897 127.104 136.347C130.798 133.825 134.671 131.385 138.675 129.073C142.697 126.751 146.752 124.615 150.785 122.68C154.868 124.664 158.878 126.791 162.814 129.059C166.763 131.329 170.636 133.726 174.431 136.25C174.757 140.822 174.92 145.401 174.92 149.987ZM182.095 111.791C196.505 108.988 207.37 110.873 210.092 115.587C212.992 120.61 208.836 131.701 198.438 143.385C197.864 144.03 197.267 144.677 196.65 145.327C191.584 140.748 186.211 136.518 180.57 132.668C180.001 125.986 178.985 119.349 177.529 112.802C179.081 112.42 180.603 112.083 182.095 111.791ZM181.121 140.926C184.926 143.704 188.585 146.678 192.081 149.835C188.6 153.044 184.953 156.069 181.156 158.897C181.272 155.928 181.33 152.956 181.328 149.984C181.326 146.964 181.258 143.945 181.121 140.926ZM210.132 184.342C207.406 189.075 196.873 191.049 182.74 188.375C181.121 188.07 179.459 187.706 177.755 187.284C179.176 180.652 180.146 173.933 180.661 167.17C186.292 163.253 191.648 158.954 196.689 154.301C197.571 155.218 198.41 156.13 199.206 157.038C203.714 161.94 207.281 167.629 209.729 173.822C210.512 175.455 210.952 177.23 211.021 179.04C211.09 180.849 210.788 182.654 210.132 184.342Z" fill="#DEE1E6"/>
</svg>
