<svg width="300" height="300" viewBox="0 0 300 300" fill="none" xmlns="http://www.w3.org/2000/svg">
<path d="M198.75 131.413C193.125 129.476 188.161 125.993 184.425 121.363C180.308 116.205 175.065 112.057 169.099 109.236C163.132 106.415 156.599 104.997 150 105.088C141.123 104.46 132.334 107.198 125.385 112.757C118.436 118.317 113.835 126.29 112.5 135.088C115.13 130.688 119.088 127.235 123.805 125.227C128.522 123.219 133.755 122.759 138.75 123.913C144.365 125.907 149.322 129.41 153.075 134.038C157.215 139.156 162.467 143.261 168.433 146.042C174.398 148.823 180.919 150.207 187.5 150.088C196.377 150.717 205.166 147.979 212.115 142.42C219.064 136.86 223.665 128.887 225 120.088C222.418 124.542 218.472 128.047 213.745 130.086C209.019 132.125 203.761 132.591 198.75 131.413ZM101.25 168.763C106.875 170.701 111.839 174.184 115.575 178.813C119.692 183.972 124.935 188.12 130.901 190.941C136.868 193.762 143.401 195.18 150 195.088C158.877 195.717 167.666 192.979 174.615 187.42C181.564 181.86 186.165 173.887 187.5 165.088C184.87 169.489 180.912 172.942 176.195 174.95C171.478 176.958 166.245 177.418 161.25 176.263C155.635 174.27 150.678 170.767 146.925 166.138C142.774 161.034 137.52 156.938 131.557 154.158C125.594 151.378 119.078 149.986 112.5 150.088C103.623 149.46 94.8344 152.198 87.885 157.757C80.9357 163.317 76.3353 171.29 75 180.088C77.5823 175.635 81.5281 172.13 86.2548 170.091C90.9814 168.052 96.2386 167.586 101.25 168.763Z" fill="#DEE1E6"/>
</svg>
